<svg xmlns="http://www.w3.org/2000/svg" width="317" height="72" viewBox="0 0 317 72" fill="none">
  <path d="M194.878 36.2296C194.878 33.4416 194.521 31.4356 193.807 30.2116C193.127 28.9536 191.835 28.3246 189.931 28.3246C189.251 28.3246 188.503 28.3756 187.687 28.4776C186.871 28.5796 186.259 28.6646 185.851 28.7326V50.2546H179.68V24.4486C180.87 24.1086 182.417 23.7856 184.321 23.4796C186.259 23.1736 188.299 23.0206 190.441 23.0206C192.277 23.0206 193.773 23.2586 194.929 23.7346C196.119 24.2106 197.105 24.8396 197.887 25.6216C198.261 25.3496 198.737 25.0606 199.315 24.7546C199.893 24.4486 200.539 24.1766 201.253 23.9386C201.967 23.6666 202.715 23.4456 203.497 23.2756C204.313 23.1056 205.129 23.0206 205.945 23.0206C208.019 23.0206 209.719 23.3266 211.045 23.9386C212.405 24.5166 213.459 25.3496 214.207 26.4376C214.989 27.4916 215.516 28.7836 215.788 30.3136C216.094 31.8096 216.247 33.4586 216.247 35.2606V50.2546H210.076V36.2296C210.076 33.4416 209.736 31.4356 209.056 30.2116C208.376 28.9536 207.067 28.3246 205.129 28.3246C204.143 28.3246 203.208 28.4946 202.324 28.8346C201.44 29.1406 200.777 29.4466 200.335 29.7526C200.607 30.6026 200.794 31.5036 200.896 32.4556C200.998 33.4076 201.049 34.4276 201.049 35.5156V50.2546H194.878V36.2296Z" fill="white"/>
  <path d="M171.826 49.4385C170.636 49.7445 169.089 50.0505 167.185 50.3565C165.281 50.6965 163.19 50.8665 160.912 50.8665C158.77 50.8665 156.968 50.5605 155.506 49.9485C154.078 49.3365 152.922 48.4865 152.038 47.3985C151.188 46.3105 150.576 45.0185 150.202 43.5225C149.828 41.9925 149.641 40.3265 149.641 38.5245V23.5815H155.812V37.5555C155.812 40.4115 156.22 42.4515 157.036 43.6755C157.886 44.8995 159.348 45.5115 161.422 45.5115C162.17 45.5115 162.952 45.4775 163.768 45.4095C164.618 45.3415 165.247 45.2565 165.655 45.1545V23.5815H171.826V49.4385Z" fill="white"/>
  <path d="M128.324 16.5436L134.495 15.5236V23.5816H143.981V28.7326H134.495V39.5956C134.495 41.7376 134.835 43.2676 135.515 44.1856C136.195 45.1036 137.351 45.5626 138.983 45.5626C140.105 45.5626 141.091 45.4436 141.941 45.2056C142.825 44.9676 143.522 44.7466 144.032 44.5426L145.052 49.4386C144.338 49.7446 143.403 50.0506 142.247 50.3566C141.091 50.6966 139.731 50.8666 138.167 50.8666C136.263 50.8666 134.665 50.6116 133.373 50.1016C132.115 49.5916 131.112 48.8606 130.364 47.9086C129.616 46.9226 129.089 45.7496 128.783 44.3896C128.477 42.9956 128.324 41.4146 128.324 39.6466V16.5436Z" fill="white"/>
  <path d="M98.7969 24.4486C99.9869 24.1086 101.534 23.7856 103.438 23.4796C105.342 23.1736 107.45 23.0206 109.762 23.0206C111.938 23.0206 113.757 23.3266 115.219 23.9386C116.681 24.5166 117.837 25.3496 118.687 26.4376C119.571 27.4916 120.183 28.7836 120.523 30.3136C120.897 31.8096 121.084 33.4586 121.084 35.2606V50.2546H114.913V36.2296C114.913 34.8016 114.811 33.5946 114.607 32.6086C114.437 31.5886 114.131 30.7726 113.689 30.1606C113.281 29.5146 112.703 29.0556 111.955 28.7836C111.241 28.4776 110.357 28.3246 109.303 28.3246C108.521 28.3246 107.705 28.3756 106.855 28.4776C106.005 28.5796 105.376 28.6646 104.968 28.7326V50.2546H98.7969V24.4486Z" fill="white"/>
  <path d="M80.937 45.9196C82.841 45.9196 84.286 45.8176 85.272 45.6136V38.7796C84.932 38.6776 84.439 38.5756 83.793 38.4736C83.147 38.3716 82.433 38.3206 81.651 38.3206C80.971 38.3206 80.274 38.3716 79.56 38.4736C78.88 38.5756 78.251 38.7626 77.673 39.0346C77.129 39.3066 76.687 39.6976 76.347 40.2076C76.007 40.6836 75.837 41.2956 75.837 42.0436C75.837 43.5056 76.296 44.5256 77.214 45.1036C78.132 45.6476 79.373 45.9196 80.937 45.9196ZM80.427 22.9186C82.467 22.9186 84.184 23.1736 85.578 23.6836C86.972 24.1936 88.077 24.9076 88.893 25.8256C89.743 26.7436 90.338 27.8656 90.678 29.1916C91.052 30.4836 91.239 31.9116 91.239 33.4756V49.6426C90.287 49.8466 88.842 50.0846 86.904 50.3566C85 50.6626 82.841 50.8156 80.427 50.8156C78.829 50.8156 77.367 50.6626 76.041 50.3566C74.715 50.0506 73.576 49.5576 72.624 48.8776C71.706 48.1976 70.975 47.3136 70.431 46.2256C69.921 45.1376 69.666 43.7946 69.666 42.1966C69.666 40.6666 69.955 39.3746 70.533 38.3206C71.145 37.2666 71.961 36.4166 72.981 35.7706C74.001 35.0906 75.174 34.6146 76.5 34.3426C77.86 34.0366 79.271 33.8836 80.733 33.8836C81.413 33.8836 82.127 33.9346 82.875 34.0366C83.623 34.1046 84.422 34.2406 85.272 34.4446V33.4246C85.272 32.7106 85.187 32.0306 85.017 31.3846C84.847 30.7386 84.541 30.1776 84.099 29.7016C83.691 29.1916 83.13 28.8006 82.416 28.5286C81.736 28.2566 80.869 28.1206 79.815 28.1206C78.387 28.1206 77.078 28.2226 75.888 28.4266C74.698 28.6306 73.729 28.8686 72.981 29.1406L72.216 24.1426C72.998 23.8706 74.137 23.5986 75.633 23.3266C77.129 23.0546 78.727 22.9186 80.427 22.9186Z" fill="white"/>
  <path d="M63.6987 49.4385C62.5087 49.7445 60.9617 50.0505 59.0577 50.3565C57.1537 50.6965 55.0627 50.8665 52.7847 50.8665C50.6427 50.8665 48.8407 50.5605 47.3787 49.9485C45.9507 49.3365 44.7947 48.4865 43.9107 47.3985C43.0607 46.3105 42.4487 45.0185 42.0747 43.5225C41.7007 41.9925 41.5137 40.3265 41.5137 38.5245V23.5815H47.6847V37.5555C47.6847 40.4115 48.0927 42.4515 48.9087 43.6755C49.7587 44.8995 51.2207 45.5115 53.2947 45.5115C54.0427 45.5115 54.8247 45.4775 55.6407 45.4095C56.4907 45.3415 57.1197 45.2565 57.5277 45.1545V23.5815H63.6987V49.4385Z" fill="white"/>
  <path d="M7.48569 32.5576C7.48569 34.4956 7.72369 36.2636 8.19969 37.8616C8.67569 39.4256 9.35569 40.7686 10.2397 41.8906C11.1577 42.9786 12.2627 43.8286 13.5547 44.4406C14.8467 45.0526 16.3087 45.3586 17.9407 45.3586C19.5387 45.3586 20.9837 45.0526 22.2757 44.4406C23.5677 43.8286 24.6557 42.9786 25.5397 41.8906C26.4577 40.7686 27.1547 39.4256 27.6307 37.8616C28.1067 36.2636 28.3447 34.4956 28.3447 32.5576C28.3447 30.6196 28.1067 28.8686 27.6307 27.3046C27.1547 25.7066 26.4577 24.3636 25.5397 23.2756C24.6557 22.1536 23.5677 21.2866 22.2757 20.6746C20.9837 20.0626 19.5387 19.7566 17.9407 19.7566C16.3087 19.7566 14.8467 20.0626 13.5547 20.6746C12.2627 21.2866 11.1577 22.1536 10.2397 23.2756C9.35569 24.3976 8.67569 25.7406 8.19969 27.3046C7.72369 28.8686 7.48569 30.6196 7.48569 32.5576ZM35.0767 32.5576C35.0767 35.1076 34.7537 37.4026 34.1077 39.4426C33.4617 41.4826 32.5607 43.2676 31.4047 44.7976C30.2487 46.2936 28.8887 47.5176 27.3247 48.4696C25.7947 49.4216 24.1117 50.1016 22.2757 50.5096C22.3777 51.2236 22.7347 51.8356 23.3467 52.3456C23.9587 52.8556 24.7237 53.2806 25.6417 53.6206C26.5937 53.9606 27.6647 54.2326 28.8547 54.4366C30.0787 54.6746 31.3537 54.8446 32.6797 54.9466L31.2517 59.7916C26.8657 59.4516 23.3807 58.6016 20.7967 57.2416C18.2127 55.9156 16.5637 53.7906 15.8497 50.8666C13.7417 50.6626 11.7697 50.1186 9.93369 49.2346C8.13169 48.3506 6.55069 47.1436 5.19069 45.6136C3.83069 44.0836 2.75969 42.2306 1.97769 40.0546C1.19569 37.8786 0.804688 35.3796 0.804688 32.5576C0.804688 29.5316 1.26369 26.8796 2.18169 24.6016C3.09969 22.2896 4.34069 20.3516 5.90469 18.7876C7.50269 17.2236 9.33869 16.0506 11.4127 15.2686C13.4867 14.4866 15.6797 14.0956 17.9917 14.0956C20.3037 14.0956 22.4967 14.4866 24.5707 15.2686C26.6447 16.0506 28.4467 17.2236 29.9767 18.7876C31.5407 20.3516 32.7817 22.2896 33.6997 24.6016C34.6177 26.8796 35.0767 29.5316 35.0767 32.5576Z" fill="white"/>
  <path d="M253.312 70.1052H287.92" stroke="#9A38FF" stroke-width="2.9466" stroke-linecap="round"/>
  <path d="M284.776 2.13H254.117L228 35.7348L247.515 62.0154" stroke="#4F3AFF" stroke-width="2.9466" stroke-linecap="round"/>
  <path d="M293.453 8.41345L314.27 35.7349L291.892 64.0971" stroke="#E038FF" stroke-width="2.9466" stroke-linecap="round"/>
  <path d="M241.342 35.7347L258.775 14.1378H282.454L300.668 35.7347L282.454 58.3725H258.775L241.342 35.7347Z" fill="url(#paint0_linear_108_15632)"/>
  <path d="M236.918 35.7348L256.844 10.7552H284.261L304.831 35.7348L284.261 61.495H256.844L236.918 35.7348Z" stroke="white" stroke-width="2.73653"/>
  <path d="M263.046 44.8421H259.037L265.145 27.1482H269.966L276.065 44.8421H272.056L267.624 31.1915H267.486L263.046 44.8421ZM262.795 37.8872H272.264V40.8074H262.795V37.8872Z" fill="white"/>
  <path d="M281.935 27.1482V44.8421H278.194V27.1482H281.935Z" fill="white"/>
  <defs>
    <linearGradient id="paint0_linear_108_15632" x1="271.005" y1="14.1378" x2="271.005" y2="58.3725" gradientUnits="userSpaceOnUse">
      <stop stop-color="#0C00DD"/>
      <stop offset="1" stop-color="#9800AF"/>
    </linearGradient>
  </defs>
</svg>